<?xml version="1.0" encoding="UTF-8"?><svg id="Layer_1" xmlns="http://www.w3.org/2000/svg" viewBox="0 0 354.23 500"><defs><style>.cls-1,.cls-2,.cls-3,.cls-4,.cls-5{stroke-width:0px;}.cls-2{fill:#2965f1;}.cls-3{fill:#264de4;}.cls-4{fill:#fff;}.cls-5{fill:#ebebeb;}</style></defs><g id="layer1"><g id="g3013"><polygon id="polygon2989" class="cls-3" points="354.23 98.26 321.96 459.78 176.9 500 32.24 459.84 0 98.26 354.23 98.26"/><polygon id="polygon2991" class="cls-2" points="294.33 436.76 321.91 127.83 177.12 127.83 177.12 469.26 294.33 436.76"/><polygon id="polygon2993" class="cls-5" points="73.9 261.93 77.88 306.28 177.12 306.28 177.12 261.93 73.9 261.93"/><polygon id="polygon2995" class="cls-5" points="177.12 172.17 176.96 172.17 65.92 172.17 69.95 216.52 177.12 216.52 177.12 172.17"/><polygon id="polygon2997" class="cls-5" points="177.12 423.24 177.12 377.1 176.92 377.15 127.53 363.82 124.38 328.45 100.38 328.45 79.86 328.45 86.07 398.08 176.91 423.3 177.12 423.24"/><path id="path2999" class="cls-1" d="m83.37,0h53.71v22.46h-31.25v22.46h31.25v22.46h-53.71V0Z"/><path id="path3001" class="cls-1" d="m147.82,0h53.71v19.53h-31.25v3.91h31.25v44.92h-53.71v-20.51h31.25v-3.91h-31.25V0Z"/><path id="path3003" class="cls-1" d="m212.27,0h53.71v19.53h-31.25v3.91h31.25v44.92h-53.71v-20.51h31.25v-3.91h-31.25V0Z"/><polygon id="polygon3005" class="cls-4" points="231.57 306.28 226.42 363.79 176.96 377.14 176.96 423.28 267.88 398.08 268.54 390.59 278.96 273.84 280.04 261.93 288.05 172.17 176.96 172.17 176.96 216.52 239.45 216.52 235.42 261.93 176.96 261.93 176.96 306.28 231.57 306.28"/></g></g></svg>