<?xml version="1.0" encoding="UTF-8"?><svg id="Layer_1" xmlns="http://www.w3.org/2000/svg" viewBox="0 0 500 500"><defs><style>.cls-1,.cls-2,.cls-3,.cls-4,.cls-5{stroke-width:0px;}.cls-2{fill:#2965f1;}.cls-3{fill:#264de4;}.cls-4{fill:#fff;}.cls-5{fill:#ebebeb;}</style></defs><g id="layer1"><g id="g3013"><polygon id="polygon2989" class="cls-3" points="424.87 98.74 392.6 460.26 247.54 500.48 102.88 460.32 70.64 98.74 424.87 98.74"/><polygon id="polygon2991" class="cls-2" points="364.97 437.24 392.55 128.31 247.76 128.31 247.76 469.74 364.97 437.24"/><polygon id="polygon2993" class="cls-5" points="144.54 262.41 148.52 306.76 247.76 306.76 247.76 262.41 144.54 262.41"/><polygon id="polygon2995" class="cls-5" points="247.76 172.65 247.6 172.65 136.56 172.65 140.59 217 247.76 217 247.76 172.65"/><polygon id="polygon2997" class="cls-5" points="247.76 423.72 247.76 377.58 247.56 377.63 198.17 364.3 195.02 328.93 171.02 328.93 150.5 328.93 156.71 398.56 247.55 423.78 247.76 423.72"/><path id="path2999" class="cls-1" d="m154.01.48h53.71v22.46h-31.25v22.46h31.25v22.46h-53.71V.48Z"/><path id="path3001" class="cls-1" d="m218.46.48h53.71v19.53h-31.25v3.91h31.25v44.92h-53.71v-20.51h31.25v-3.91h-31.25V.48Z"/><path id="path3003" class="cls-1" d="m282.91.48h53.71v19.53h-31.25v3.91h31.25v44.92h-53.71v-20.51h31.25v-3.91h-31.25V.48h0Z"/><polygon id="polygon3005" class="cls-4" points="302.21 306.76 297.06 364.27 247.6 377.62 247.6 423.76 338.52 398.56 339.18 391.07 349.6 274.32 350.68 262.41 358.69 172.65 247.6 172.65 247.6 217 310.09 217 306.06 262.41 247.6 262.41 247.6 306.76 302.21 306.76"/></g></g></svg>