<?xml version="1.0" encoding="UTF-8"?><svg id="Layer_1" xmlns="http://www.w3.org/2000/svg" viewBox="0 0 500 500"><defs><style>.cls-1,.cls-2,.cls-3,.cls-4,.cls-5{stroke-width:0px;}.cls-2{fill:#e44d26;}.cls-3{fill:#fff;}.cls-4{fill:#f16529;}.cls-5{fill:#ebebeb;}</style></defs><path class="cls-1" d="m106.11,0h22.46v22.27h20.7V0h22.46v67.38h-22.46v-22.46h-20.51v22.46h-22.66m95.31-44.92h-19.82V0h62.21v22.46h-19.92v44.92h-22.46M253.67,0h23.54l14.45,23.73,14.45-23.73h23.54v67.38h-22.46v-33.4l-15.72,24.22-15.72-24.22v33.4h-22.07M340.78,0h22.46v45.12h31.84v22.27h-54.3"/><path class="cls-2" d="m105.33,459.96L73.1,98.24h354.3l-32.23,361.52-145.21,40.23"/><path class="cls-4" d="m250.25,469.24V127.93h144.82l-27.64,308.59"/><path class="cls-5" d="m138.92,172.17h111.33v44.34h-62.7l4.1,45.41h58.59v44.24h-99.22m1.95,22.27h44.53l3.12,35.45,49.61,13.28v46.29l-91.02-25.39"/><path class="cls-3" d="m361.19,172.17h-111.13v44.34h107.03m-4,45.41h-103.03v44.34h54.69l-5.18,57.62-49.51,13.28v46.09l90.82-25.2"/></svg>